<?xml version="1.0" standalone="no"?>
<!DOCTYPE svg PUBLIC "-//W3C//DTD SVG 20010904//EN"
 "http://www.w3.org/TR/2001/REC-SVG-20010904/DTD/svg10.dtd">
<svg version="1.0" xmlns="http://www.w3.org/2000/svg"
 width="60.000000pt" height="60.000000pt" viewBox="0 0 60.000000 60.000000"
 preserveAspectRatio="xMidYMid meet">

<g transform="translate(0.000000,60.000000) scale(0.100000,-0.100000)"
fill="#000000" stroke="none">
<path d="M90 300 l0 -210 210 0 210 0 0 210 0 210 -210 0 -210 0 0 -210z m180
110 c0 -16 7 -20 30 -20 23 0 30 4 30 20 0 16 7 20 30 20 23 0 30 -4 30 -20 0
-13 7 -20 20 -20 16 0 20 -7 20 -30 0 -23 -4 -30 -20 -30 -16 0 -20 -7 -20
-30 0 -23 4 -30 20 -30 16 0 20 -7 20 -30 0 -23 -4 -30 -20 -30 -13 0 -20 -7
-20 -20 0 -16 -7 -20 -30 -20 -23 0 -30 4 -30 20 0 16 -7 20 -30 20 -23 0 -30
-4 -30 -20 0 -16 -7 -20 -30 -20 -23 0 -30 4 -30 20 0 13 -7 20 -20 20 -16 0
-20 7 -20 30 0 23 4 30 20 30 16 0 20 7 20 30 0 23 -4 30 -20 30 -16 0 -20 7
-20 30 0 23 4 30 20 30 13 0 20 7 20 20 0 16 7 20 30 20 23 0 30 -4 30 -20z"/>
<path d="M270 300 c0 -27 3 -30 30 -30 27 0 30 3 30 30 0 27 -3 30 -30 30 -27
0 -30 -3 -30 -30z"/>
</g>
</svg>
